<svg width="28" height="28" viewBox="0 0 28 28" fill="none" xmlns="http://www.w3.org/2000/svg">
<g clip-path="url(#clip0_2366_4280)">
<path fill-rule="evenodd" clip-rule="evenodd" d="M27.3995 2.1581C26.3677 0.192497 22.9741 0.809897 20.0411 1.5953C7.29135 6.2937 2.78055 15.8418 1.19575 21.53C1.11735 21.6728 1.06975 21.8366 1.06555 22.0116C0.43835 24.4252 0.35295 26.0338 0.35155 26.087C0.32775 26.6652 0.77715 27.1538 1.35535 27.1776C1.37075 27.179 1.38615 27.179 1.40155 27.179C1.96015 27.179 2.42495 26.738 2.45015 26.1738C2.45715 26.003 2.52155 24.8284 2.91775 23.0728C6.42895 22.9244 9.96395 21.6168 13.4359 19.1752C13.7075 18.9848 13.8727 18.6768 13.8825 18.3464C13.8923 18.0146 13.7439 17.6982 13.4849 17.4938L11.8833 16.2254L17.1389 15.7102C17.3531 15.6892 17.5547 15.6038 17.7185 15.4638C17.8319 15.3686 20.5073 13.0782 23.0525 10.4083C26.9235 6.3483 28.2633 3.8045 27.3995 2.1581Z" fill="#335CFF"/>
<path fill-rule="evenodd" clip-rule="evenodd" d="M21.1785 25.0798H12.2045C11.6249 25.0798 11.1545 25.5502 11.1545 26.1298C11.1545 26.7094 11.6249 27.1798 12.2045 27.1798H21.1785C21.7581 27.1798 22.2285 26.7094 22.2285 26.1298C22.2285 25.5502 21.7581 25.0798 21.1785 25.0798Z" fill="#335CFF"/>
</g>
<defs>
<clipPath id="clip0_2366_4280">
<rect width="28" height="28" fill="white"/>
</clipPath>
</defs>
</svg>
